<svg xmlns="http://www.w3.org/2000/svg" fill="none" viewBox="0 0 252 117" height="117" width="252">
<g clip-path="url(#clip0_49_787)">
<path fill="#BCC5CC" d="M6.68009 7.16627C11.1943 5.44492 15.7714 3.89137 20.3312 2.31157C21.4632 1.91943 24.1231 0.464863 25.2185 0.728981C25.494 1.05812 25.4712 1.11338 25.47 1.5227C25.417 19.5454 25.4422 37.5682 25.4458 55.5909C25.4469 61.0978 25.4479 66.6048 25.4488 72.1117C25.4496 76.5667 25.5012 81.0165 25.1415 85.461C24.4265 94.2937 21.0577 102.566 14.3055 108.358C11.4918 110.771 8.41473 112.456 5.19707 114.214C3.59534 115.09 1.81527 116.269 0 116.542V115.689C1.38518 114.443 3.04675 113.457 4.33427 112.117C9.31424 106.931 10.5357 99.1102 10.9611 92.1622C11.478 83.7187 11.4705 75.291 11.4743 66.8336C11.4783 58.0557 11.4815 49.2778 11.48 40.4999C11.4792 35.6448 11.4775 30.7897 11.4727 25.9347C11.4693 22.45 11.7091 18.6027 11.0386 15.1806C10.409 11.9672 8.61079 9.69201 6.68009 7.16627Z"></path>
<path fill="#BCC5CC" d="M225.388 0H232.569C233.076 0.401413 234.015 0.512823 234.639 0.692648C236.284 1.16554 238.521 1.87238 239.809 3.06005C240.731 3.91081 241.771 4.81157 242.544 5.803C244.083 7.77518 245.213 10.5062 245.837 12.9158C246.576 15.7685 246.659 18.9867 246.705 21.9276C246.76 25.5323 246.726 29.1419 246.726 32.7472C246.725 41.1573 246.721 49.5673 246.72 57.9773C246.719 62.9714 246.585 68.0129 246.834 73.0003C247.023 76.7738 248.469 80.661 251.302 83.2253C251.434 83.3438 251.506 83.8208 251.557 84.0098L227.588 84.0195C228.219 83.5643 228.606 82.8023 229.058 82.1723C230.339 80.3865 231.438 78.9773 232.044 76.8075C232.617 74.7535 232.71 72.7373 232.807 70.6176C232.964 67.1709 232.896 63.703 232.897 60.2531C232.899 53.9478 232.886 47.6425 232.889 41.3372C232.891 36.4112 232.908 31.4852 232.908 26.5592C232.908 23.3198 233.005 19.9544 232.672 16.7304C232.458 14.6603 231.906 12.406 230.892 10.5868C229.668 8.39033 227.427 6.85199 225.048 6.21308C223.527 5.80463 222.169 5.84471 220.617 5.96693C215.133 6.39872 209.649 9.1683 205.105 12.2238C203.042 13.6111 201.108 15.3107 198.986 16.5781C199.403 17.249 199.191 18.8445 199.185 19.6782C199.167 22.2473 199.174 24.8168 199.173 27.386C199.171 37.4199 199.17 47.4539 199.169 57.4879C199.169 63.0725 198.843 68.856 199.398 74.4089C199.704 77.4735 200.991 79.869 202.838 82.2503C203.358 82.92 203.817 83.1203 204.045 83.9715C201.675 84.288 198.899 84.0075 196.491 84.0105C190.909 84.0165 185.328 84.027 179.746 84.0375C180.166 83.754 180.703 83.4623 180.967 83.0168L183.182 79.7985C184.194 78.1673 184.843 76.1783 185.045 74.2584C185.388 71.0141 185.204 67.6064 185.205 64.3409C185.208 58.652 185.209 52.9631 185.208 47.2741C185.207 40.8109 185.204 34.3478 185.198 27.8846C185.195 25.4942 185.188 23.1044 185.16 20.7142C185.136 18.7167 185.148 16.6975 184.7 14.7388C184.207 12.5824 183.242 10.9734 181.973 9.20265C181.422 8.43345 180.92 7.67018 180.108 7.1593C182.106 6.728 184.028 5.77067 185.952 5.09478C188.576 4.17279 191.207 3.22466 193.839 2.31813C195.549 1.72888 197.328 1.22471 198.959 0.422613L199.227 0.944303C199.427 1.64372 199.203 2.92941 199.2 3.69435C199.188 6.56948 199.406 9.64672 199.133 12.4973C199.098 12.8702 198.961 13.2158 198.792 13.5458C200.911 12.4783 202.844 10.5168 204.849 9.17573C208.303 6.86557 212.31 4.54934 216.152 2.99032C219.064 1.80793 222.156 1.02221 225.211 0.323507L225.388 0Z"></path>
<path fill="#BCC5CC" d="M67.9013 1.57982L68.326 1.54769C75.3277 1.36719 82.9268 2.43963 88.8152 6.55309C89.6289 7.1216 90.5282 7.65944 91.2414 8.35604C93.3217 10.3882 95.0169 13.6886 95.5919 16.5391C96.172 19.4119 96.1114 22.3003 96.1173 25.2146C96.1232 28.612 96.121 32.0093 96.1195 35.4067C96.1151 47.8479 95.9215 60.3309 96.2333 72.7644C96.3479 77.3286 98.2974 80.8588 101.488 83.9526L82.2396 84.0501C82.2706 81.5818 81.8945 78.7851 82.4605 76.3843C78.2696 80.0563 73.7557 82.9738 68.1755 83.8978C59.5868 85.3198 49.8725 84.3688 42.6769 79.0453C38.615 76.0408 36.6285 71.1025 35.8775 66.2305C35.3752 63.1972 35.7247 60.0733 36.321 57.0892C36.6908 55.238 37.4786 53.3919 38.3092 51.7147C43.9515 40.3223 57.0871 36.5654 67.9702 32.3514C71.6465 30.9279 75.1703 29.7268 78.4825 27.4925C80.1881 26.3417 81.6979 24.6944 82.1065 22.5936C82.3859 21.16 82.2529 19.5573 82.1701 18.1063C81.9839 14.8235 81.754 11.041 79.8918 8.23424C78.0605 5.47488 75.5176 4.32879 72.38 3.72708C70.5324 3.3728 68.4875 3.52079 66.6219 3.65962C62.2399 3.98573 57.9268 5.23895 54.1705 7.62074C50.9737 9.64769 48.2827 12.3589 45.7476 15.1609C44.8707 16.1301 44.0342 17.1085 43.2513 18.1579C42.5822 19.0549 41.991 20.0722 41.0661 20.7186L40.8304 20.6248L40.6509 8.11761C46.0759 7.63537 50.9435 5.16249 56.0951 3.54521C59.8946 2.35242 63.9461 1.83121 67.9013 1.57982ZM82.094 26.7568C79.2673 29.7629 76.0334 31.6475 72.6203 33.8496C68.4171 36.5614 64.0608 39.0913 60.1884 42.2915C53.0861 48.1609 49.1065 55.6504 49.3115 65.0445C49.416 69.837 50.6215 74.6095 53.8663 78.2301C56.8351 81.0831 60.0313 82.2673 64.1055 82.1533C68.5327 82.0288 74.1379 79.8838 77.2018 76.5628C79.6361 73.924 81.0173 70.7377 81.7511 67.2348C82.6113 63.1284 82.2374 58.4743 82.2366 54.2939C82.2359 47.7349 82.2344 41.1758 82.2329 34.6168C82.2322 32.9319 82.2285 31.2469 82.2329 29.5619C82.2351 28.74 82.1465 27.7687 82.3068 26.9651L82.094 26.7568Z"></path>
<path fill="#BCC5CC" d="M138.167 1.59061C145.362 1.13032 153.535 2.34862 159.593 6.53106C162.76 8.71805 165.052 11.7557 166.135 15.5181C166.917 18.2314 166.942 21.249 166.946 24.0573C166.949 26.6101 166.949 29.1628 166.949 31.7156C166.949 40.7503 166.944 49.7851 166.941 58.8198C166.939 63.9158 166.645 69.2479 167.158 74.3112C167.416 76.8586 168.323 79.3283 169.875 81.369C170.506 82.1985 171.719 82.9336 171.918 83.9963L152.776 84.0518C152.884 83.9153 152.979 83.7743 153.035 83.6078C153.201 83.1121 153.075 82.2091 153.066 81.6661C153.041 80.1526 153.364 77.784 152.682 76.4498L152.523 76.9688C148.721 80.3356 144.02 83.1556 138.937 83.9063C130.298 85.1813 120.556 84.495 113.373 78.9615C109.339 75.8543 107.347 71.1944 106.683 66.2321C106.533 65.7652 106.581 65.0003 106.562 64.4996C106.503 62.9954 106.503 61.447 106.622 59.9461C106.817 57.4969 107.492 55.2739 108.444 53.0311C113.121 42.0192 124.344 37.7884 134.657 33.9931C135.588 33.6506 136.47 33.1697 137.402 32.8307C141.71 31.2632 146.872 29.6958 150.4 26.6237C152.12 25.126 152.851 23.4376 153.002 21.1697C153.296 16.7931 152.661 10.3684 149.726 7.00327C147.752 4.7398 144.354 3.70969 141.45 3.55077C134.97 3.19613 128.558 4.9178 123.257 8.75878C120.773 10.5595 118.534 12.8827 116.498 15.1745C115.665 16.1126 114.805 17.0525 114.042 18.0502C113.179 19.1791 112.535 20.255 111.472 21.2241C111.384 18.2542 111.402 15.2758 111.411 12.3047C111.415 11.134 111.234 9.55588 111.574 8.43755C112.22 7.712 114.862 7.6757 115.941 7.35382C121.029 5.83607 125.771 3.69754 130.986 2.51395C133.291 1.99075 135.812 1.79452 138.167 1.59061ZM152.659 26.9051L152.617 26.9634C152.006 27.8038 151.205 28.4011 150.418 29.0557C148.384 30.7489 146.235 32.0667 144.004 33.4699C139.542 36.276 134.867 38.9902 130.804 42.3813C125.935 46.4458 121.912 52.0008 120.6 58.3296C119.856 61.9161 119.929 65.7675 120.448 69.381C120.799 71.821 121.877 74.1908 123.144 76.2645C123.442 76.7535 124.183 77.5718 124.31 78.0826C124.96 78.4763 125.417 78.9991 125.999 79.4731C126.625 79.9816 127.446 80.4323 128.141 80.8358C131.588 82.8361 136.275 82.2308 139.947 81.2993C144.133 80.2381 148.087 77.1458 150.26 73.4104C151.667 70.9914 152.384 68.3916 152.733 65.6251C153.237 61.6308 153.098 57.4516 153.1 53.4316C153.103 47.8227 153.099 42.2137 153.091 36.6047C153.088 34.3069 153.095 32.0081 153.058 29.7105C153.047 29.0058 153.157 27.9316 152.983 27.2746C152.931 27.0799 152.806 27.0212 152.659 26.9051Z"></path>
</g>
<defs>
<clipPath id="clip0_49_787">
<rect fill="white" height="117" width="252"></rect>
</clipPath>
</defs>
</svg>
