<svg xmlns="http://www.w3.org/2000/svg" fill="none" viewBox="0 0 370 172" height="172" width="370">
<g clip-path="url(#clip0_49_770)">
<path fill="#1B2636" d="M9.80807 10.5351C16.436 8.00452 23.1565 5.72066 29.8514 3.39823C31.5134 2.82175 35.4189 0.68341 37.0271 1.07169C37.4316 1.55554 37.3982 1.63679 37.3965 2.23851C37.3187 28.7334 37.3557 55.2285 37.3609 81.7234C37.3625 89.8191 37.364 97.9147 37.3653 106.01C37.3664 112.56 37.4423 119.101 36.9141 125.635C35.8643 138.62 30.9181 150.781 21.0042 159.295C16.8729 162.843 12.355 165.321 7.63063 167.905C5.27887 169.192 2.66528 170.925 0 171.327V170.073C2.0338 168.241 4.47341 166.791 6.36381 164.821C13.6757 157.198 15.4691 145.701 16.0937 135.486C16.8527 123.074 16.8416 110.684 16.8473 98.2511C16.8531 85.3468 16.8578 72.4425 16.8555 59.5383C16.8543 52.4009 16.8518 45.2636 16.8449 38.1262C16.8399 33.0034 17.192 27.3476 16.2075 22.3168C15.2831 17.5928 12.6428 14.2481 9.80807 10.5351Z"></path>
<path fill="#1B2636" d="M330.928 0H341.47C342.215 0.590111 343.593 0.753894 344.51 1.01825C346.924 1.71344 350.21 2.75256 352.1 4.49853C353.454 5.74922 354.981 7.07341 356.117 8.5309C358.376 11.4302 360.035 15.4449 360.951 18.9873C362.036 23.1811 362.158 27.9121 362.226 32.2354C362.307 37.5347 362.257 42.8411 362.257 48.1413C362.255 60.5048 362.25 72.8681 362.247 85.2316C362.246 92.5733 362.05 99.9848 362.416 107.317C362.692 112.864 364.816 118.579 368.976 122.348C369.169 122.522 369.274 123.224 369.35 123.502L334.158 123.516C335.083 122.847 335.652 121.726 336.315 120.8C338.196 118.175 339.81 116.103 340.699 112.914C341.541 109.894 341.677 106.93 341.819 103.814C342.05 98.747 341.951 93.6488 341.953 88.5771C341.955 79.3079 341.935 70.0385 341.94 60.7693C341.943 53.5276 341.969 46.286 341.969 39.0443C341.968 34.2821 342.111 29.3346 341.622 24.5951C341.307 21.5519 340.498 18.2378 339.009 15.5635C337.211 12.3345 333.92 10.073 330.427 9.13376C328.194 8.5333 326.2 8.59223 323.921 8.77189C315.87 9.40666 307.818 13.4782 301.146 17.97C298.117 20.0094 295.277 22.508 292.162 24.3712C292.774 25.3575 292.463 27.703 292.454 28.9286C292.428 32.7055 292.438 36.4827 292.437 40.2597C292.433 55.0105 292.432 69.7613 292.431 84.5121C292.431 92.722 291.953 101.224 292.767 109.387C293.217 113.893 295.106 117.414 297.819 120.915C298.581 121.899 299.255 122.194 299.589 123.445C296.11 123.911 292.034 123.498 288.499 123.503C280.304 123.511 272.108 123.527 263.913 123.542C264.529 123.126 265.318 122.697 265.706 122.042L268.957 117.311C270.444 114.913 271.397 111.989 271.694 109.166C272.197 104.397 271.926 99.3872 271.928 94.5867C271.933 86.2234 271.934 77.8602 271.933 69.4969C271.93 59.9955 271.927 50.4941 271.917 40.9927C271.913 37.4787 271.903 33.9654 271.862 30.4516C271.827 27.5152 271.845 24.5468 271.187 21.6673C270.462 18.4973 269.046 16.1318 267.183 13.5287C266.374 12.3979 265.636 11.2758 264.445 10.5248C267.379 9.89073 270.2 8.48337 273.024 7.48976C276.877 6.13436 280.741 4.74053 284.605 3.40785C287.116 2.5416 289.728 1.80042 292.122 0.621277L292.516 1.38821C292.81 2.41641 292.481 4.30648 292.477 5.43101C292.458 9.65769 292.779 14.1815 292.378 18.3721C292.326 18.9203 292.125 19.4284 291.877 19.9135C294.989 18.3441 297.826 15.4606 300.77 13.4891C305.841 10.093 311.726 6.68791 317.366 4.39602C321.642 2.65781 326.182 1.50273 330.667 0.475583L330.928 0Z"></path>
<path fill="#1B2636" d="M99.6958 2.32271L100.319 2.27547C110.6 2.01012 121.757 3.58671 130.403 9.63384C131.597 10.4696 132.918 11.2603 133.965 12.2843C137.019 15.2718 139.508 20.1237 140.353 24.3141C141.204 28.5373 141.115 32.7835 141.124 37.0679C141.133 42.0623 141.129 47.0567 141.127 52.0511C141.121 70.3407 140.837 88.6918 141.294 106.97C141.463 113.68 144.325 118.87 149.009 123.418L120.748 123.561C120.794 119.933 120.241 115.821 121.072 112.292C114.919 117.69 108.292 121.979 100.098 123.337C87.488 125.428 73.225 124.03 62.66 116.204C56.696 111.787 53.7794 104.527 52.6767 97.3647C51.9392 92.9055 52.4524 88.3132 53.3279 83.9262C53.8709 81.2048 55.0276 78.4909 56.2472 76.0253C64.5314 59.2775 83.8178 53.7545 99.7969 47.5595C105.195 45.4669 110.368 43.7011 115.232 40.4166C117.736 38.7248 119.953 36.3031 120.553 33.2147C120.963 31.1072 120.768 28.7511 120.646 26.618C120.373 21.7921 120.035 16.2315 117.301 12.1053C114.612 8.04877 110.878 6.36392 106.272 5.47936C103.559 4.95854 100.556 5.1761 97.8174 5.38019C91.3834 5.8596 85.0507 7.70194 79.5355 11.2034C74.8418 14.1832 70.8907 18.1688 67.1686 22.288C65.8811 23.7128 64.6528 25.1513 63.5034 26.6938C62.5209 28.0125 61.6529 29.508 60.2949 30.4583L59.9489 30.3205L59.6852 11.9338C67.6505 11.2249 74.7975 7.58954 82.3614 5.212C87.9399 3.45849 93.8886 2.69227 99.6958 2.32271ZM120.534 39.335C116.384 43.7543 111.636 46.5248 106.625 49.762C100.453 53.7487 94.057 57.4677 88.3713 62.1724C77.9434 70.8009 72.1002 81.8111 72.4012 95.6212C72.5547 102.667 74.3246 109.683 79.0889 115.005C83.4478 119.199 88.1406 120.94 94.1226 120.773C100.623 120.59 108.853 117.436 113.351 112.554C116.925 108.675 118.953 103.991 120.031 98.8411C121.294 92.8044 120.745 85.9625 120.744 79.8169C120.743 70.1746 120.74 60.5322 120.738 50.8899C120.737 48.4129 120.732 45.9358 120.738 43.4588C120.742 42.2505 120.611 40.8225 120.847 39.6413L120.534 39.335Z"></path>
<path fill="#1B2636" d="M202.865 2.33825C213.429 1.6616 225.43 3.45259 234.324 9.60114C238.974 12.8162 242.339 17.2818 243.93 22.8128C245.078 26.8016 245.115 31.2377 245.12 35.3662C245.126 39.119 245.124 42.8718 245.124 46.6246C245.124 59.9064 245.117 73.1882 245.113 86.47C245.11 93.9616 244.679 101.8 245.432 109.244C245.81 112.989 247.143 116.619 249.421 119.619C250.348 120.839 252.128 121.919 252.42 123.482L224.315 123.563C224.474 123.363 224.613 123.155 224.695 122.911C224.939 122.182 224.754 120.854 224.741 120.056C224.705 117.831 225.178 114.349 224.178 112.388L223.943 113.151C218.361 118.1 211.46 122.246 203.996 123.349C191.312 125.224 177.008 124.215 166.461 116.08C160.539 111.512 157.615 104.662 156.639 97.3668C156.419 96.6803 156.489 95.5559 156.461 94.8198C156.375 92.6085 156.374 90.3322 156.55 88.1259C156.836 84.5252 157.827 81.2572 159.225 77.9602C166.091 61.7717 182.571 55.552 197.712 49.9726C199.078 49.4692 200.374 48.7622 201.742 48.2639C208.067 45.9595 215.646 43.6553 220.826 39.139C223.352 36.9373 224.425 34.4551 224.648 31.1212C225.078 24.6872 224.146 15.2423 219.838 10.2953C216.938 6.96783 211.949 5.45349 207.686 5.21986C198.171 4.69851 188.756 7.22951 180.974 12.8761C177.327 15.5232 174.039 18.9385 171.051 22.3077C169.827 23.6868 168.565 25.0686 167.444 26.5353C166.177 28.1949 165.232 29.7765 163.67 31.2011C163.541 26.8352 163.567 22.4567 163.581 18.0889C163.587 16.3679 163.321 14.0479 163.82 12.4038C164.769 11.3372 168.648 11.2839 170.233 10.8107C177.703 8.57945 184.666 5.43563 192.322 3.69564C195.706 2.92649 199.407 2.63803 202.865 2.33825ZM224.143 39.5527L224.081 39.6384C223.185 40.8739 222.009 41.752 220.853 42.7143C217.866 45.2035 214.712 47.1407 211.436 49.2035C204.885 53.3287 198.021 57.3188 192.055 62.304C184.906 68.2793 179 76.4455 177.073 85.7494C175.98 91.0218 176.087 96.6837 176.85 101.996C177.365 105.583 178.948 109.067 180.807 112.115C181.246 112.834 182.333 114.037 182.52 114.788C183.474 115.367 184.145 116.135 185 116.832C185.919 117.58 187.125 118.242 188.144 118.835C193.206 121.776 200.088 120.886 205.479 119.517C211.625 117.957 217.431 113.411 220.621 107.92C222.687 104.363 223.739 100.541 224.251 96.4744C224.991 90.6024 224.789 84.4587 224.791 78.549C224.795 70.3034 224.79 62.0577 224.778 53.812C224.773 50.4339 224.784 47.0546 224.729 43.6769C224.713 42.6409 224.874 41.0617 224.619 40.0958C224.543 39.8096 224.359 39.7234 224.143 39.5527Z"></path>
</g>
<defs>
<clipPath id="clip0_49_770">
<rect fill="white" height="172" width="370"></rect>
</clipPath>
</defs>
</svg>
